<svg xmlns="http://www.w3.org/2000/svg" version="1.1" xmlns:xlink="http://www.w3.org/1999/xlink" xmlns:svgjs="http://svgjs.com/svgjs" width="1440" height="560" preserveAspectRatio="none" viewBox="0 0 1440 560"><g mask="url(&quot;#SvgjsMask1000&quot;)" fill="none"><rect width="1440" height="560" x="0" y="0" fill="#0e2a47"></rect><path d="M358.11 523.06L397.52 523.06L397.52 532.2L358.11 532.2z" stroke="#037b0b"></path><path d="M620.6 309.26a0.32 0.32 0 1 0 0.64-0.04z" fill="#e73635"></path><path d="M858.83 515.02L863.67 515.02L863.67 519.86L858.83 519.86z" fill="#e73635"></path><path d="M883.28 28.49L890.07 28.49L890.07 35.28L883.28 35.28z" stroke="#d3b714"></path><path d="M1285.62 63.83 a20.69 20.69 0 1 0 41.38 0 a20.69 20.69 0 1 0 -41.38 0z" stroke="#037b0b"></path><path d="M779.2 553.07L779.64 553.07L779.64 588.95L779.2 588.95z" stroke="#e73635"></path><path d="M843.28 105.13 a50.4 50.4 0 1 0 100.8 0 a50.4 50.4 0 1 0 -100.8 0z" stroke="#e73635"></path><path d="M1026.93 165.14a39.91 39.91 0 1 0 76.94-21.24z" fill="#e73635"></path><path d="M1399.73 107.95a25.95 25.95 0 1 0 41.94-30.58z" stroke="#037b0b"></path><path d="M612.48 505.17 a7.87 7.87 0 1 0 15.74 0 a7.87 7.87 0 1 0 -15.74 0z" stroke="#037b0b"></path><path d="M1385.76 11.79L1434.24 11.79L1434.24 54.56L1385.76 54.56z" fill="#d3b714"></path><path d="M403.39 459.71L452.3 459.71L452.3 515.6L403.39 515.6z" fill="#d3b714"></path><path d="M1053.25 385.04L1103.74 385.04L1103.74 421.42L1053.25 421.42z" stroke="#d3b714"></path><path d="M341.46 311.08L386.63 311.08L386.63 356.25L341.46 356.25z" fill="#e73635"></path><path d="M668.15 371.14a35.25 35.25 0 1 0-69.74 10.28z" stroke="#d3b714"></path><path d="M569.95 462.1L622 462.1L622 516.59L569.95 516.59z" stroke="#d3b714"></path><path d="M742.41 85.26L769.73 85.26L769.73 125.7L742.41 125.7z" fill="#e73635"></path><path d="M1021.86 545.44L1026.56 545.44L1026.56 594.75L1021.86 594.75z" fill="#d3b714"></path><path d="M1033.88 207.6L1049.75 207.6L1049.75 224.49L1033.88 224.49z" fill="#d3b714"></path><path d="M1330.94 386.79a22.12 22.12 0 1 0-43.87-5.7z" fill="#037b0b"></path><path d="M1252 319.94 a26.87 26.87 0 1 0 53.74 0 a26.87 26.87 0 1 0 -53.74 0z" stroke="#e73635"></path><path d="M1284.14 361.91L1327.25 361.91L1327.25 405.02L1284.14 405.02z" stroke="#e73635"></path><path d="M1183.13 215.69 a1.55 1.55 0 1 0 3.1 0 a1.55 1.55 0 1 0 -3.1 0z" fill="#037b0b"></path><path d="M915.61 0.9L957.76 0.9L957.76 15.38L915.61 15.38z" fill="#037b0b"></path><path d="M1000.92 285.96a44.85 44.85 0 1 0 86.6 23.36z" stroke="#e73635"></path><path d="M1114.91 401.74a54.94 54.94 0 1 0-88.56-65.06z" fill="#d3b714"></path><path d="M1058.14 56.87 a1.88 1.88 0 1 0 3.76 0 a1.88 1.88 0 1 0 -3.76 0z" fill="#e73635"></path><path d="M72.6 342.53L77.91 342.53L77.91 347.84L72.6 347.84z" stroke="#037b0b"></path><path d="M35.03 60.02a53 53 0 1 0 95.06-46.9z" fill="#e73635"></path><path d="M584.79 29.35a50.77 50.77 0 1 0 91.13-44.78z" fill="#e73635"></path><path d="M293.11 234.8a30.86 30.86 0 1 0-17-59.33z" fill="#037b0b"></path><path d="M1412.52 367.71a55.33 55.33 0 1 0-71.82-84.19z" fill="#d3b714"></path><path d="M913.57 293.43a49.07 49.07 0 1 0-87.5 44.44z" fill="#037b0b"></path></g><defs><mask id="SvgjsMask1000"><rect width="1440" height="560" fill="#ffffff"></rect></mask></defs></svg>